<svg xmlns="http://www.w3.org/2000/svg" viewBox="0 0 15 15" width="15" height="15">
	<style>
		tspan { white-space:pre }
		.shp0 { fill: #ffffff } 
	</style>
	<g id="Footer">
		<g id="Social Part">
			<path id="-e- Dribble" class="shp0" d="M14.42 4.59C14.25 4.17 14.03 3.77 13.77 3.39C13.52 3.02 13.23 2.67 12.91 2.35C12.59 2.03 12.23 1.74 11.86 1.48C11.48 1.23 11.07 1.01 10.65 0.83C10.23 0.65 9.78 0.51 9.32 0.42C8.85 0.32 8.37 0.28 7.89 0.28C7.41 0.28 6.93 0.32 6.47 0.42C6.01 0.51 5.56 0.65 5.13 0.83C4.71 1.01 4.31 1.23 3.93 1.48C3.56 1.74 3.2 2.03 2.88 2.35C2.56 2.67 2.27 3.02 2.02 3.39C1.76 3.77 1.54 4.17 1.36 4.59C1.18 5.02 1.04 5.47 0.95 5.92C0.85 6.38 0.8 6.86 0.8 7.34C0.8 7.82 0.85 8.3 0.95 8.76C1.04 9.22 1.18 9.66 1.36 10.09C1.54 10.51 1.76 10.91 2.02 11.29C2.27 11.67 2.56 12.02 2.88 12.34C3.2 12.66 3.56 12.95 3.93 13.2C4.31 13.45 4.71 13.67 5.13 13.85C5.56 14.03 6.01 14.17 6.47 14.26C6.93 14.36 7.41 14.4 7.89 14.4C8.37 14.4 8.85 14.36 9.32 14.26C9.78 14.17 10.23 14.03 10.65 13.85C11.07 13.67 11.48 13.45 11.86 13.2C12.23 12.95 12.59 12.66 12.91 12.34C13.23 12.02 13.52 11.67 13.77 11.29C14.03 10.91 14.25 10.51 14.42 10.09C14.61 9.66 14.75 9.22 14.84 8.76C14.94 8.3 14.98 7.82 14.98 7.34C14.98 6.86 14.94 6.38 14.84 5.92C14.75 5.47 14.61 5.02 14.42 4.59ZM7.89 1.31C9.43 1.31 10.83 1.88 11.89 2.81C11.88 2.84 11.01 4.14 8.73 5C7.7 3.1 6.56 1.6 6.47 1.48C6.92 1.37 7.4 1.31 7.89 1.31ZM6.44 1.48L6.44 1.49C6.44 1.49 6.43 1.49 6.42 1.49C6.43 1.49 6.44 1.49 6.44 1.48ZM5.31 1.89C5.39 1.99 6.51 3.51 7.56 5.36C4.65 6.13 2.13 6.1 1.97 6.1C2.36 4.23 3.62 2.68 5.31 1.89ZM3.39 11.37C3.39 11.37 3.39 11.37 3.39 11.37C3.39 11.37 3.39 11.37 3.39 11.37ZM3.39 11.37C2.42 10.3 1.84 8.89 1.84 7.34C1.84 7.28 1.84 7.21 1.84 7.15C1.95 7.15 4.94 7.22 8.06 6.29C8.23 6.63 8.4 6.97 8.55 7.32C8.47 7.34 8.39 7.36 8.31 7.39C5.05 8.44 3.39 11.37 3.39 11.37ZM4.17 12.1C4.17 12.1 4.12 12.05 4.04 11.99C4.08 12.03 4.13 12.05 4.18 12.09L4.17 12.1ZM7.89 13.37C6.49 13.37 5.2 12.89 4.18 12.09C4.22 11.99 5.4 9.55 8.92 8.33C8.94 8.32 8.95 8.32 8.96 8.31C9.82 10.52 10.17 12.37 10.26 12.89C9.53 13.2 8.73 13.37 7.89 13.37ZM11.28 12.34C11.22 11.98 10.89 10.21 10.1 8.03C12.05 7.72 13.75 8.26 13.87 8.3C13.6 9.98 12.64 11.43 11.28 12.34ZM9.73 7.08C9.69 6.98 9.64 6.88 9.6 6.77C9.47 6.48 9.34 6.18 9.2 5.9C11.59 4.93 12.56 3.52 12.57 3.51C13.42 4.54 13.93 5.85 13.95 7.28C13.86 7.26 11.81 6.82 9.73 7.08Z" />
		</g>
	</g>
</svg>