<svg xmlns="http://www.w3.org/2000/svg" viewBox="0 0 16 15" width="16" height="15">
	<style>
		tspan { white-space:pre }
		.shp0 { fill: #ffffff } 
	</style>
	<g>
		<g>
			<path class="shp0" d="M9.93 0.44L5.75 0.44C3.63 0.44 1.86 1.99 1.86 3.71C1.86 5.46 3.02 6.85 5.02 6.85C5.16 6.85 5.29 6.85 5.42 6.84C5.29 7.09 5.2 7.36 5.2 7.65C5.2 8.14 5.47 8.41 5.8 8.74C5.55 8.74 5.31 8.74 5.04 8.74C2.62 8.74 0.92 10.41 0.92 12.01C0.92 13.58 2.96 14.56 5.39 14.56C8.16 14.56 9.86 13 9.86 11.42C9.86 10.16 9.59 9.53 8.24 8.52C7.85 8.23 7.01 7.64 7.01 7.24C7.01 6.77 7.14 6.54 7.85 5.99C8.57 5.43 9.08 4.69 9.08 3.77C9.08 2.76 8.67 1.85 7.9 1.41L9 1.41L9.93 0.44ZM8.51 11.15C8.55 11.3 8.57 11.45 8.57 11.6C8.57 12.87 7.74 13.87 5.38 13.87C3.71 13.87 2.49 12.81 2.49 11.54C2.49 10.29 3.91 9.22 5.59 9.23C5.99 9.24 6.35 9.3 6.68 9.41C7.59 10.04 8.33 10.43 8.51 11.15ZM5.82 6.22C4.7 6.18 3.63 5.16 3.43 3.68C3.24 2.21 3.99 1.08 5.12 1.11C6.25 1.15 7.21 2.36 7.4 3.83C7.6 5.3 6.95 6.25 5.82 6.22ZM13.16 2.55L13.16 0.63L12.19 0.63L12.19 2.55L10.26 2.55L10.26 3.51L12.19 3.51L12.19 5.43L13.16 5.43L13.16 3.51L15.08 3.51L15.08 2.55L13.16 2.55Z" />
		</g>
	</g>
</svg>
