<svg xmlns="http://www.w3.org/2000/svg" viewBox="0 0 15 12" width="15" height="12">
	<style>
		tspan { white-space:pre }
		.shp0 { fill: #ffffff } 
	</style>
	<g id="Footer">
		<g id="Social Part">
			<path id="-e- Tweter" class="shp0" d="M0.83 10.16C2.12 10.99 3.65 11.46 5.29 11.46C10.64 11.46 13.57 7.05 13.57 3.22C13.57 3.09 13.57 2.97 13.56 2.84C14.13 2.44 14.62 1.93 15.01 1.34C14.49 1.58 13.93 1.73 13.34 1.8C13.94 1.44 14.4 0.87 14.62 0.2C14.06 0.53 13.43 0.77 12.77 0.9C12.24 0.34 11.49 -0.01 10.65 -0.01C9.04 -0.01 7.74 1.28 7.74 2.88C7.74 3.11 7.77 3.33 7.82 3.54C5.4 3.42 3.25 2.27 1.82 0.52C1.57 0.94 1.43 1.44 1.43 1.97C1.43 2.98 1.94 3.86 2.72 4.38C2.24 4.37 1.79 4.24 1.4 4.02L1.4 4.06C1.4 5.46 2.41 6.63 3.74 6.9C3.49 6.97 3.23 7 2.97 7C2.78 7 2.6 6.98 2.42 6.95C2.79 8.1 3.87 8.94 5.14 8.96C4.14 9.74 2.89 10.2 1.53 10.2C1.29 10.2 1.06 10.19 0.83 10.16Z" />
		</g>
	</g>
</svg>
