<svg xmlns="http://www.w3.org/2000/svg" xmlns:xlink="http://www.w3.org/1999/xlink" width="17px" height="16px">
    <path fill="rgb(255, 255, 255)" d="M16.949,0.545 L11.895,14.521 C11.767,14.874 11.483,15.147 11.127,15.257 C10.769,15.367 10.382,15.300 10.081,15.080 L5.357,11.606 L16.210,0.803 L3.936,10.560 L0.480,8.019 C0.164,7.788 -0.000,7.400 0.051,7.008 C0.103,6.617 0.361,6.286 0.726,6.145 L16.454,0.054 C16.594,-0.000 16.751,0.033 16.858,0.139 C16.964,0.245 17.000,0.404 16.949,0.545 ZM5.079,15.825 C4.847,15.976 4.554,16.000 4.301,15.889 C4.048,15.778 3.866,15.547 3.815,15.271 L3.145,11.566 L3.116,11.405 L7.200,14.361 C7.233,14.408 6.013,15.216 5.079,15.825 Z" />
</svg>
