<svg id="Camera" xmlns="http://www.w3.org/2000/svg" xmlns:xlink="http://www.w3.org/1999/xlink" width="101.312" height="127" viewBox="0 0 101.312 127">
  <defs>
    <style>
      .cls-1 {
        fill: #e25842;
        filter: url(#filter);
      }

      .cls-1, .cls-2, .cls-3, .cls-4 {
        fill-rule: evenodd;
      }

      .cls-2 {
        fill: #f06c57;
      }

      .cls-3 {
        fill: #c34733;
      }

      .cls-4 {
        fill: #fff;
      }
    </style>
    <filter id="filter" x="665.688" y="964" width="101.312" height="127" filterUnits="userSpaceOnUse">
      <feOffset result="offset" dy="5" in="SourceAlpha"/>
      <feGaussianBlur result="blur"/>
      <feFlood result="flood" flood-color="#b1220a" flood-opacity="0.75"/>
      <feComposite result="composite" operator="in" in2="blur"/>
      <feBlend result="blend" in="SourceGraphic"/>
    </filter>
  </defs>
  <path id="Rounded_Rectangle_14" data-name="Rounded Rectangle 14" class="cls-1" d="M671.3,964h90.068A5.6,5.6,0,0,1,767,969.576V1080.2a5.6,5.6,0,0,1-5.629,5.57H671.3a5.6,5.6,0,0,1-5.629-5.57V969.576A5.6,5.6,0,0,1,671.3,964Zm-21.841-1.613,16.212,25.806,22.7-25" transform="translate(-665.688 -964)"/>
  <path class="cls-2" d="M665.674,988.193h21.887V964Z" transform="translate(-665.688 -964)"/>
  <path class="cls-3" d="M687.561,988.193l-21.887,21.777V988.193h21.887Z" transform="translate(-665.688 -964)"/>
  <path id="camera-2" data-name="camera" class="cls-4" d="M691.132,1005.01h52.03a5.985,5.985,0,0,1,6,5.97v35.77a5.983,5.983,0,0,1-6,5.96h-52.03a5.983,5.983,0,0,1-6-5.96v-35.77A5.985,5.985,0,0,1,691.132,1005.01Zm16.009-7.946h20.012c1.105,0,2,1.186,2,2.65v4.636c0,1.46-.9,2.65-2,2.65H707.141c-1.105,0-2-1.19-2-2.65v-4.636C705.14,998.25,706.036,997.064,707.141,997.064Zm10.006,13.916a17.885,17.885,0,1,1-18.01,17.88A17.943,17.943,0,0,1,717.147,1010.98Zm0,5.96a11.925,11.925,0,1,1-12.007,11.92A11.966,11.966,0,0,1,717.147,1016.94Zm0,7.95a3.975,3.975,0,1,1-4,3.97A3.987,3.987,0,0,1,717.147,1024.89Zm-8-23.85h16.01v1.99h-16.01v-1.99Z" transform="translate(-665.688 -964)"/>
</svg>
