<svg xmlns="http://www.w3.org/2000/svg" width="15" height="15" viewBox="0 0 15 15"><g><g><path fill="#fff" d="M14.839 5.92a6.977 6.977 0 0 1 0 2.843 7.07 7.07 0 0 1-4.186 5.086 7.086 7.086 0 0 1-2.758.555c-.482 0-.962-.049-1.427-.143a7 7 0 0 1-2.539-1.066 7.017 7.017 0 0 1-1.912-1.904 7.214 7.214 0 0 1-.656-1.2 7.071 7.071 0 0 1 .655-6.701c.253-.373.544-.724.864-1.045A7.095 7.095 0 0 1 5.134.831a7.227 7.227 0 0 1 2.76-.554 7.116 7.116 0 0 1 2.758.555 7.065 7.065 0 0 1 2.254 1.513c.321.32.61.672.866 1.045a7.087 7.087 0 0 1 1.067 2.53zM6.468 1.478c.09.12 1.227 1.625 2.262 3.52 2.285-.854 3.146-2.16 3.163-2.184a6.035 6.035 0 0 0-4-1.506c-.49 0-.968.061-1.425.17zm-.043.01c.01 0 .017-.002.017-.002l.002-.002c-.008.002-.014.004-.02.004zm-4.456 4.61c.16.003 2.683.032 5.589-.737A35.252 35.252 0 0 0 5.31 1.887a6.041 6.041 0 0 0-3.341 4.21zm6.344 1.288l.24-.07c-.154-.344-.32-.688-.493-1.025-3.118.93-6.108.861-6.215.86-.002.061-.006.126-.006.188 0 1.552.586 2.961 1.549 4.03.002-.004 1.66-2.93 4.925-3.983zm-4.136 4.702c-.04-.032-.086-.056-.126-.086l.122.096zm-.139-.096zm6.219.902c-.088-.527-.442-2.373-1.293-4.58a.405.405 0 0 1-.04.014c-3.52 1.22-4.702 3.664-4.747 3.76a6.036 6.036 0 0 0 6.08.806zM13.87 8.3c-.124-.042-1.817-.577-3.771-.264.793 2.176 1.116 3.945 1.176 4.308A6.028 6.028 0 0 0 13.871 8.3zm.075-1.02a5.987 5.987 0 0 0-1.377-3.77c-.01.016-.98 1.417-3.373 2.387a17.795 17.795 0 0 1 .533 1.188c2.08-.26 4.13.177 4.217.195z"/></g></g></svg>