<svg xmlns="http://www.w3.org/2000/svg" width="14" height="15" viewBox="0 0 14 15"><g><g><path fill="#fff" d="M7.995 1.413H6.897c.776.441 1.186 1.351 1.186 2.353 0 .922-.512 1.662-1.233 2.227-.707.549-.84.78-.84 1.244 0 .398.842.994 1.23 1.283 1.349 1.008 1.622 1.643 1.622 2.904 0 1.575-1.7 3.14-4.47 3.14-2.427 0-4.477-.985-4.477-2.558 0-1.6 1.701-3.263 4.129-3.263.264 0 .507-.006.758-.006-.333-.322-.6-.602-.6-1.088 0-.287.09-.562.22-.81a5.8 5.8 0 0 1-.403.015C2.022 6.854.86 5.46.86 3.708.86 1.993 2.63.436 4.75.436h4.179zM5.681 9.409a3.638 3.638 0 0 0-1.087-.174c-1.679-.02-3.1 1.057-3.1 2.303 0 1.271 1.211 2.328 2.89 2.328 2.359 0 3.181-.992 3.181-2.264 0-.154-.02-.302-.053-.447-.185-.72-.92-1.115-1.831-1.746zm.723-5.578C6.21 2.356 5.247 1.147 4.12 1.112c-1.126-.033-1.883 1.096-1.686 2.57.193 1.473 1.263 2.502 2.39 2.537 1.126.034 1.775-.915 1.58-2.388zm7.68-1.281v.959h-1.929V5.43h-.964V3.51H9.265v-.96h1.926V.629h.964V2.55z"/></g></g></svg>