<svg xmlns="http://www.w3.org/2000/svg" width="14" height="12" viewBox="0 0 14 12"><g><g><path fill="#fff" d="M-.167 10.164a8.25 8.25 0 0 0 4.459 1.3c5.35 0 8.277-4.415 8.277-8.246 0-.124-.003-.25-.01-.374a5.844 5.844 0 0 0 1.453-1.5 5.716 5.716 0 0 1-1.671.455A2.901 2.901 0 0 0 13.62.197 5.876 5.876 0 0 1 11.771.9 2.91 2.91 0 0 0 9.65-.014a2.902 2.902 0 0 0-2.834 3.557A8.267 8.267 0 0 1 .82.515a2.894 2.894 0 0 0 .9 3.869 2.887 2.887 0 0 1-1.318-.36v.034A2.903 2.903 0 0 0 2.735 6.9a2.93 2.93 0 0 1-1.313.05 2.906 2.906 0 0 0 2.717 2.013 5.844 5.844 0 0 1-3.613 1.24 5.82 5.82 0 0 1-.693-.039z"/></g></g></svg>