<?xml version="1.0" encoding="utf-8"?>
<!-- Generator: Adobe Illustrator 24.3.0, SVG Export Plug-In . SVG Version: 6.00 Build 0)  -->
<svg version="1.1" id="Layer_6" xmlns="http://www.w3.org/2000/svg" xmlns:xlink="http://www.w3.org/1999/xlink" x="0px" y="0px"
	 viewBox="0 0 3000 3500" style="enable-background:new 0 0 3000 3500;" xml:space="preserve">
<style type="text/css">
	.st0{fill:#00C7FC;}
	.st1{fill:#FFFFFF;}
</style>
<g>
	<path class="st0" d="M-1189.2,6842.9c-0.2-7.1-6-12.7-13.2-12.7c-7.1,0-12.9,5.6-13.1,12.7h0v17.3c0,1.9,1,2.2,2.1,0.8c0,0,0,0,0,0
		l0.2-0.2c1.2-1.5,3.1-1.4,4.2,0l0.1,0.1l0.1,0.1c1.2,1.5,3.1,1.5,4.2,0l0.1-0.1l0.1-0.1c1.2-1.5,3.1-1.4,4.3,0l0.1,0.2v0
		c1.2,1.5,3.1,1.5,4.3,0l0,0l0.1-0.2c1.2-1.5,3.1-1.5,4.2,0l0.1,0.1l0.1,0.1c1.2,1.5,2.1,1.1,2.1-0.7L-1189.2,6842.9L-1189.2,6842.9
		z M-1206.9,6844c-1.3,0-2.3-1-2.3-2.3s1-2.3,2.3-2.3s2.3,1,2.3,2.3S-1205.6,6844-1206.9,6844z M-1197.7,6844c-1.3,0-2.3-1-2.3-2.3
		s1-2.3,2.3-2.3c1.3,0,2.3,1,2.3,2.3S-1196.4,6844-1197.7,6844z"/>
	<g>
		<path class="st1" d="M-1177.8,6860.1c-0.9,0-1.5-0.3-2-0.8c-0.5-0.5-0.8-1.2-0.8-2c0-1.9,1.4-3.5,4.3-4.8c0.1-0.9,0.3-2.3,0.5-4
			c0.4-3.6,0.6-5.6,0.7-6.2c0.7-0.4,1.3-0.6,2.1-0.6s1.3,0,1.6,0.1l-1.8,13.6C-1173.8,6858.6-1175.3,6860.1-1177.8,6860.1z
			 M-1178.9,6857.1c0,0.6,0.3,0.9,0.8,0.9c0.2,0,0.5-0.1,0.7-0.4c0.2-0.3,0.4-0.8,0.5-1.4l0.2-1.5
			C-1178.1,6855.5-1178.9,6856.3-1178.9,6857.1z M-1162.8,6854.8l0.8,1.2c-0.2,0.9-0.6,1.6-1,2.2c-0.4,0.6-0.9,1-1.3,1.3
			c-0.8,0.4-1.6,0.7-2.3,0.7c-1.3,0-2.2-0.4-2.9-1.1c-0.6-0.7-0.9-1.7-1-3c0-2-0.2-3.3-0.4-3.8c-0.2-0.5-0.6-0.8-1.3-0.8l0.2-1.8
			c0.3,0,0.5-0.1,0.7-0.2c0.2-0.1,0.4-0.2,0.6-0.5c0.5-0.5,0.9-1.6,1.2-3.4c0.2-1.3,0.6-2.3,1.3-2.9c0.6-0.6,1.4-0.9,2.1-0.9
			c0.8,0,1.4,0.2,2,0.7c0.6,0.4,0.9,1.2,0.9,2.1c0,1.3-0.5,2.4-1.4,3.4s-2.2,1.8-3.9,2.6c0.6,0.3,1,0.7,1.3,1.4
			c0.3,0.6,0.4,1.3,0.5,2c0,0.7,0.1,1.4,0.1,2c0.1,1.5,0.5,2.3,1.4,2.3C-1164.4,6858.2-1163.6,6857-1162.8,6854.8z M-1165.2,6844.5
			c-0.1-0.1-0.3-0.2-0.4-0.2c-0.1,0-0.2,0-0.3,0c-0.1,0-0.1,0.1-0.2,0.2c-0.1,0.1-0.1,0.1-0.1,0.2c0,0.1-0.1,0.2-0.1,0.3
			s-0.1,0.3-0.1,0.4c0,0.1-0.1,0.3-0.1,0.4c0,0.2-0.1,0.5-0.2,0.8c-0.1,0.3-0.2,0.7-0.3,1c1.3-0.9,2-1.7,2-2.6
			C-1165,6844.8-1165,6844.6-1165.2,6844.5z"/>
		<path class="st1" d="M-1152.1,6860.1c-1.5,0-2.5-0.5-2.9-1.5c-0.8,1-1.9,1.6-3.2,1.6c-1.3,0-2.4-0.4-3.3-1.3s-1.3-2-1.3-3.5
			c0-2.1,0.6-3.8,1.9-5c1.2-1.3,2.8-1.9,4.7-1.9c0,0,0.1,0,0.1,0c0.8,0,1.5,0.1,2.2,0.4c0.4-0.3,1-0.4,1.6-0.4
			c0.6,0,1.1,0.1,1.3,0.2c-0.1,1.2-0.3,2.4-0.5,3.5c-0.2,1.1-0.3,2-0.3,2.4c-0.1,1.1-0.2,1.9-0.2,2.4c0,0.6,0.3,1,0.8,1
			c0.4,0,0.8-0.3,1.3-0.8c0.4-0.5,0.8-1.4,1.2-2.5c0.5,0.4,0.8,0.9,1,1.4c-0.5,1.5-1.1,2.6-1.9,3.2
			C-1150.5,6859.8-1151.3,6860.1-1152.1,6860.1z M-1155.9,6850.3c-1,0-1.8,0.4-2.4,1.2s-1,1.9-1.1,3.5c0,0.1,0,0.3,0,0.4
			c0,0.8,0.2,1.4,0.6,1.9c0.4,0.5,0.9,0.7,1.5,0.7c1,0,1.8-0.7,2.3-2.1l0.6-5.2C-1155.1,6850.4-1155.5,6850.3-1155.9,6850.3z"/>
		<path class="st1" d="M-1138.9,6852.6c1.3,0.9,1.9,2,1.9,3.3s-0.5,2.3-1.5,3.1c-1,0.8-2.2,1.2-3.8,1.2c-1,0-1.8-0.2-2.4-0.7
			s-1-1.1-1-1.8s0.2-1.3,0.7-1.7c0.5-0.4,1.1-0.7,1.8-0.8c-0.3,0.5-0.5,0.9-0.5,1.4c0,0.4,0.2,0.8,0.5,1.1c0.3,0.3,0.7,0.4,1.2,0.4
			c0.5,0,0.9-0.2,1.2-0.5c0.3-0.3,0.5-0.7,0.5-1.2c0-0.7-0.3-1.4-1-2c-0.4-0.3-0.9-0.7-1.3-1c-0.5-0.3-0.7-0.5-0.8-0.5
			c-0.1,0-0.1-0.1-0.2-0.1c-0.3,0.3-0.7,0.8-1.3,1.4s-1,1.1-1.3,1.4c-0.9,1-1.4,1.8-1.5,2.5c0,0.1,0,0.4,0,0.7
			c0,0.4,0.1,0.7,0.3,1.1c0.2,0.4,0.5,0.7,0.8,0.9c0.3,0.2,0.6,0.3,0.9,0.5c0.3,0.1,0.6,0.2,0.8,0.3s0.3,0.1,0.3,0.1
			c0,0.1-0.2,0.2-0.5,0.4c-0.7,0.2-1.3,0.4-2.1,0.4s-1.4-0.3-2.1-0.8c-0.9-0.7-1.4-1.6-1.4-2.8c0-0.7,0.2-1.4,0.6-2.1
			c0.7-1.3,2.2-3,4.6-5.2c-0.6-0.6-0.9-1.2-0.9-1.9s0.3-1.2,0.8-1.7s1.1-0.7,1.8-0.7c0.6,0,1.2,0.2,1.6,0.7c0.3,0.3,0.5,0.8,0.5,1.3
			c0,0.5-0.2,1.1-0.5,1.7C-1140.7,6851.6-1139.5,6852.2-1138.9,6852.6z M-1144.1,6849.9c0.4-0.4,0.6-0.7,0.6-0.9
			c0-0.4-0.2-0.6-0.5-0.7c-0.4,0-0.6,0.2-0.6,0.7C-1144.7,6849.3-1144.5,6849.6-1144.1,6849.9z"/>
		<path class="st1" d="M-1134.3,6848.4c1,0,1.7,0.3,1.8,0.8c0.8-0.5,1.7-0.8,2.9-0.8s2.1,0.5,3,1.4c0.8,0.9,1.3,2.1,1.3,3.3
			c0,0.2,0,0.4,0,0.6c-0.2,2.1-0.9,3.7-2.1,4.8c-1.2,1.1-2.8,1.7-4.8,1.7c-0.4,0-0.9-0.1-1.5-0.2l-0.8,6.6h-3.2
			c1-8.8,1.7-14.8,2.1-18C-1135.4,6848.4-1134.9,6848.4-1134.3,6848.4z M-1128.8,6853.3c0-0.7-0.2-1.3-0.5-1.9s-0.8-0.8-1.5-0.8
			c-0.9,0-1.6,0.6-2.1,1.8c-0.3,2.4-0.5,3.8-0.6,4.1c0,0.5,0.1,0.8,0.5,1.1c0.3,0.2,0.7,0.4,1.2,0.4c0.8,0,1.5-0.4,2-1.1
			C-1129.1,6855.9-1128.8,6854.8-1128.8,6853.3z"/>
		<path class="st1" d="M-1118.2,6853.4c0.5-0.6,0.7-1.2,0.7-1.7c0-0.6-0.1-0.9-0.4-1.1c-0.3-0.2-0.6-0.3-1-0.3c-0.8,0-1.4,0.4-2,1.3
			c-0.6,0.8-0.9,1.8-0.9,3c0,1.2,0.3,2,0.8,2.6c0.6,0.6,1.2,0.9,2.1,0.9c1.2,0,2.4-0.4,3.5-1.3c1.1-0.8,2-1.9,2.7-3.3
			c0.4,0.3,0.7,0.8,1,1.3c-0.5,1.2-1.5,2.4-2.8,3.5c-0.7,0.6-1.5,1-2.4,1.4c-0.9,0.4-1.9,0.5-2.9,0.5c-1.6,0-2.9-0.5-3.8-1.5
			c-1-1.1-1.5-2.4-1.5-4.1c0-1.7,0.6-3.1,1.9-4.3c1.2-1.2,2.7-1.9,4.5-1.9c1.2,0,2.2,0.3,3,0.8c0.8,0.5,1.2,1.3,1.2,2.2
			c0,1.2-0.5,2.2-1.5,3c-1,0.8-2.3,1.3-4.1,1.6l-0.3-1.4C-1119.4,6854.4-1118.7,6854-1118.2,6853.4z"/>
		<path class="st1" d="M-1106.6,6851.6c0-0.7-0.3-1.1-1-1.1s-1.2,0.4-1.6,1.3c1.7,1.4,2.6,2.9,2.6,4.6c0,1.2-0.3,2.2-1,2.8
			c-0.7,0.6-1.6,1-2.6,1c-1,0-1.8-0.3-2.3-1c-0.5-0.7-0.7-1.5-0.7-2.5c0-0.3,0-0.5,0-0.7l0.8-7.3c0.6-0.2,1.2-0.3,1.8-0.3
			c1,0,1.5,0.4,1.5,1.1v0c0.6-0.8,1.5-1.1,2.5-1.1c0.7,0,1.3,0.2,1.7,0.5c0.4,0.3,0.6,0.8,0.6,1.3s-0.2,1-0.6,1.3
			c-0.4,0.3-0.9,0.5-1.6,0.5c0,0-0.1,0-0.1,0C-1106.6,6851.9-1106.6,6851.7-1106.6,6851.6z M-1109.5,6853.4
			c-0.3,2.3-0.4,3.5-0.4,3.5c0,0.7,0.3,1,0.8,1c0.7,0,1.1-0.6,1.1-1.7C-1108.1,6855.3-1108.5,6854.4-1109.5,6853.4z"/>
	</g>
	<g>
		<path class="st0" d="M-1140.6,6845.1h-0.8v-4.3h-1.5v-0.7h3.7v0.7h-1.5V6845.1z"/>
		<path class="st0" d="M-1135,6845.1h-2.8v-5h2.8v0.7h-2v1.4h1.9v0.7h-1.9v1.6h2V6845.1z"/>
		<path class="st0" d="M-1131.3,6845.1l-1.4-4.2h0c0,0.6,0.1,1.2,0.1,1.7v2.4h-0.7v-5h1.1l1.4,4h0l1.4-4h1.2v5h-0.8v-2.5
			c0-0.2,0-0.6,0-1c0-0.4,0-0.6,0-0.7h0l-1.5,4.2H-1131.3z"/>
		<path class="st0" d="M-1123.5,6841.6c0,0.5-0.2,0.9-0.5,1.2c-0.3,0.3-0.8,0.4-1.5,0.4h-0.5v1.9h-0.8v-5h1.4c0.6,0,1.1,0.1,1.4,0.4
			C-1123.6,6840.8-1123.5,6841.1-1123.5,6841.6z M-1125.9,6842.5h0.4c0.4,0,0.7-0.1,0.9-0.2c0.2-0.1,0.3-0.4,0.3-0.7
			c0-0.3-0.1-0.5-0.3-0.6c-0.2-0.1-0.4-0.2-0.8-0.2h-0.6V6842.5z"/>
		<path class="st0" d="M-1122.1,6845.1v-5h0.8v4.3h2.1v0.7H-1122.1z"/>
		<path class="st0" d="M-1114.7,6845.1l-0.5-1.4h-1.9l-0.5,1.4h-0.9l1.9-5h0.9l1.9,5H-1114.7z M-1115.4,6843l-0.5-1.4
			c0-0.1-0.1-0.2-0.1-0.4c-0.1-0.2-0.1-0.3-0.1-0.4c-0.1,0.3-0.2,0.6-0.3,0.9l-0.5,1.3H-1115.4z"/>
		<path class="st0" d="M-1111,6845.1h-0.8v-4.3h-1.5v-0.7h3.7v0.7h-1.5V6845.1z"/>
		<path class="st0" d="M-1105.7,6845.1h-2.8v-5h2.8v0.7h-2v1.4h1.9v0.7h-1.9v1.6h2V6845.1z"/>
	</g>
</g>
</svg>
