<?xml version="1.0" encoding="utf-8"?>
<!-- Generator: Adobe Illustrator 24.3.0, SVG Export Plug-In . SVG Version: 6.00 Build 0)  -->
<svg version="1.1" id="Wg." xmlns="http://www.w3.org/2000/svg" xmlns:xlink="http://www.w3.org/1999/xlink" x="0px" y="0px"
	 viewBox="0 0 169 120" style="enable-background:new 0 0 169 120;" xml:space="preserve">
<style type="text/css">
	.st0{fill:#B25454;}
</style>
<g>
	<path class="st0" d="M126.9,32.9c0,0.6-0.4,0.9-1.3,0.9c-0.9,0-2-0.2-3.1-0.7c-1.7,7.4-4.5,14.6-8.4,21.4
		c-4.5,7.7-9.6,13.4-15.1,16.9c-2.3,1.4-4.5,2.1-6.8,2.1c-5.5,0-8.2-3.4-8.2-10.2c0-4.5,1.7-12.2,5.2-23.2
		C78.5,50.9,71.7,57.6,68.7,60.3c-9.8,8.8-17.4,13.8-22.8,14.9c-1.3,0.3-2.6,0.5-3.9,0.5c-4.4,0-6.6-2-6.6-6c0-3.6,1.8-8.9,5.5-15.8
		c1.2-2.1,4.2-7.1,9-15c7.2-11.8,10.8-21,10.8-27.7c0-5.5-2.9-8.2-8.6-8.2c-6.4,0-14.6,3.8-24.6,11.4c-8.8,6.7-15.4,13.3-19.8,19.8
		c-3,4.4-4.5,8-4.5,10.9c0,2.5,1.4,3.8,4.2,3.8c0.9,0,2.3-0.3,4-0.9c1.7-0.6,2.9-0.9,3.5-0.9c0.9,0,1.3,0.2,1.3,0.7
		c0,1.1-1.4,2.1-4.1,3.1c-2.3,0.8-4.2,1.2-5.5,1.2c-4.3,0-6.5-2.3-6.5-6.8c0-6,3.3-12.8,9.9-20.2c5.9-6.7,13.2-12.6,21.7-17.6
		c8.5-5,15.8-7.5,21.7-7.5C62.5-0.3,67,3.5,67,11.2c0,3.5-1,7.5-3.1,11.9c-2.2,4.9-5.2,10.6-9.2,17.3c-3.4,5.6-6.7,11.2-10.1,16.8
		c-2.9,5-4.3,9-4.3,12c0,2.6,1.1,3.9,3.3,3.9c2.6,0,6.3-1.7,11.1-5c11.8-8.1,24.3-20.2,37.6-36.3c0.7-1,1.9-2.4,3.5-4.2
		c1-0.9,2.2-1.3,3.4-1.3c0.9,0,1.3,0.4,1.3,1.1c0,0.5-0.3,1.2-0.8,2.1C92.1,42.6,88.3,53.5,88.3,62c0,5.8,1.5,8.7,4.6,8.7
		c2.6,0,6.1-2.3,10.4-6.9c3.6-3.8,6.3-7.4,8.1-10.6c5.2-9.5,7.9-16.8,7.9-21.7c0-0.9-0.3-2.1-0.9-3.8c-0.6-1.6-0.9-2.9-0.9-3.9
		c0-2.7,0.9-4,2.6-4c0.9,0,1.8,1,2.5,3.1c0.5,1.6,0.8,3,0.8,4.2c0,0.8,0,1.7-0.1,2.7c0.4,0.9,1.1,1.4,2.1,1.8
		C126.4,31.9,126.9,32.4,126.9,32.9z"/>
	<path class="st0" d="M149.4,46.2c0,0.3-0.4,0.6-1.1,0.8c-0.7,0.2-1.2,0.6-1.4,1.1c-0.4,1.7-0.8,3.7-1.3,6c-0.9,4-2.3,10-4.1,18h0.5
		c4.1-0.2,6.2,0.7,6.2,2.7c0,0.5-0.2,0.7-0.5,0.7c-0.1,0-0.4-0.2-1-0.6c-0.6-0.4-1.7-0.6-3.3-0.6c-0.8,0-1.6,0-2.3,0.1
		c-2.9,11.7-6.6,20.8-11.1,27.3c-8.4,12.4-17.4,18.5-27,18.5c-3.8,0-6.9-1.1-9.4-3.3c-2.5-2.2-3.8-5.1-3.8-8.8
		c0-8.4,5.9-16.4,17.8-24.1c10.1-6.5,19.9-10.5,29.3-12c0.5-3,1.4-7.5,2.7-13.5c-5.2,9.3-9.9,14-14,14c-2.4,0-3.6-1.3-3.6-4
		c0-4,2-8.9,5.9-14.7c3.9-5.8,7.7-9.3,11.4-10.6c1.4-0.5,2.7-0.8,3.9-0.8c1.1,0,2.4,0.4,4,1.1C148.7,44.4,149.4,45.2,149.4,46.2z
		 M136.8,74.2c-5.2,0.9-11.3,3.1-18.4,6.7c-7.1,3.6-12.6,7.2-16.4,10.8c-5.9,5.6-8.8,11.2-8.8,16.8c0,3.1,1,5.5,2.9,7.3
		c1.9,1.8,4.4,2.8,7.5,2.8c4.9,0,9.6-2,14.3-6.1c3.8-3.2,7.1-7.3,10-12.3C131.9,93.1,134.9,84.5,136.8,74.2z M143.9,46.5
		c-0.3-0.1-0.7-0.1-1.1-0.1c-3.1,0-6.4,2-9.7,6c-4.8,5.8-7.2,10.5-7.2,14.2c0,1.6,0.5,2.5,1.6,2.5c1.7,0,3.9-1.8,6.7-5.4
		C138.1,58.8,141.3,53.1,143.9,46.5z"/>
	<path class="st0" d="M169,71.1c0,1.9-1,2.8-2.9,2.8c-2.1,0-3.2-0.9-3.2-2.8c0-1.9,1.1-2.8,3.2-2.8C168.1,68.2,169,69.2,169,71.1z"
		/>
</g>
</svg>
