<svg xmlns="http://www.w3.org/2000/svg" viewBox="0 0 66 67" width="66" height="67">
	<style>
		tspan { white-space:pre }
		.shp0 { fill: #43a06d } 
	</style>
	<g >
		<path id="-e-Shape 5" class="shp0" d="M33 0.01C14.76 0.01 0 15.04 0 33.53C0 52.01 14.76 66.99 33 66.99C51.23 66.99 66 52.01 66 33.53C66 15.04 51.23 0.01 33 0.01L33 0.01ZM47.8 20.32C48.63 20.32 49.48 20.65 50.12 21.29L53.1 24.31C54.36 25.59 54.36 27.66 53.1 28.95L34.72 47.52L31.75 50.54C31.27 51.01 30.7 51.32 30.08 51.44C29.06 51.64 27.96 51.34 27.17 50.54L24.19 47.52C24.03 47.36 23.9 47.22 23.78 47.04L14.5 37.69C13.24 36.4 13.24 34.33 14.5 33.05L17.48 30.04C18.75 28.74 20.78 28.74 22.06 30.04L29.49 37.57L45.54 21.29C46.17 20.65 46.97 20.32 47.8 20.32L47.8 20.32Z" />
	</g>
</svg>