<svg xmlns="http://www.w3.org/2000/svg" viewBox="0 0 169 120" width="169" height="120">
	<style>
		tspan { white-space:pre }
	</style>
	<path fill="#ffffff" d="M26.33 72L4.9 -13.55L16.59 -13.55L34.58 58.76L52.51 -13.55L65.52 -13.55L83.51 58.76L101.45 -13.55L113.19 -13.55L91.71 72L77.15 72L59.1 -2.26L40.88 72L26.33 72ZM170.32 39.17Q170.32 27.71 165.57 21.4Q160.87 15.1 152.33 15.1Q143.85 15.1 139.09 21.4Q134.39 27.71 134.39 39.17Q134.39 50.57 139.09 56.87Q143.85 63.18 152.33 63.18Q160.87 63.18 165.57 56.87Q170.32 50.57 170.32 39.17ZM180.86 7.82L180.86 64.04Q180.86 80.42 173.59 88.45Q166.31 96.41 151.3 96.41Q145.74 96.41 140.81 95.61Q135.88 94.75 131.24 93.03L131.24 82.77Q135.88 85.29 140.41 86.5Q144.94 87.7 149.64 87.7Q160.01 87.7 165.16 82.31Q170.32 76.87 170.32 65.93L170.32 60.71Q167.05 66.38 161.96 69.19Q156.86 72 149.75 72Q137.95 72 130.73 63Q123.51 54.01 123.51 39.17Q123.51 24.27 130.73 15.27Q137.95 6.28 149.75 6.28Q156.86 6.28 161.96 9.08Q167.05 11.89 170.32 17.57L170.32 7.82L180.86 7.82ZM204.07 72L204.07 57.45L216.16 57.45L216.16 72L204.07 72Z" />
</svg>
