<?xml version="1.0" standalone="no"?>
<!DOCTYPE svg PUBLIC "-//W3C//DTD SVG 20010904//EN"
 "http://www.w3.org/TR/2001/REC-SVG-20010904/DTD/svg10.dtd">
<svg version="1.0" xmlns="http://www.w3.org/2000/svg"
 width="273.000000pt" height="273.000000pt" viewBox="0 0 273.000000 273.000000"
 preserveAspectRatio="xMidYMid meet">
<metadata>
Created by potrace 1.16, written by Peter Selinger 2001-2019
</metadata>
<g transform="translate(0.000000,273.000000) scale(0.100000,-0.100000)"
fill="#000000" stroke="none">
<path d="M1125 2714 c-267 -47 -511 -172 -711 -366 -165 -161 -278 -339 -348
-548 -47 -145 -66 -266 -66 -435 0 -169 19 -290 66 -435 70 -209 183 -387 348
-548 202 -195 447 -321 715 -366 123 -21 349 -21 472 0 268 45 513 171 715
366 165 161 278 339 348 548 47 145 66 266 66 435 0 290 -70 525 -228 765 -70
106 -226 268 -331 343 -166 120 -375 208 -570 241 -117 20 -364 20 -476 0z
m23 -877 c23 -24 27 -36 27 -85 0 -69 -35 -146 -159 -357 -96 -161 -113 -204
-96 -236 10 -17 18 -20 43 -15 76 15 264 174 428 362 86 99 119 123 119 88 0
-8 -11 -35 -25 -59 -33 -56 -81 -188 -89 -248 -8 -54 7 -112 30 -121 47 -18
157 92 222 223 47 94 47 95 45 188 -2 75 1 93 12 93 19 0 35 -32 35 -69 0 -20
7 -35 20 -43 27 -17 25 -28 -4 -28 -19 0 -26 -7 -31 -32 -4 -18 -27 -75 -51
-126 -77 -159 -194 -258 -273 -231 -56 20 -64 89 -27 232 l22 88 -105 -104
c-175 -173 -282 -247 -357 -247 -106 0 -89 98 65 354 77 130 110 206 118 278
5 41 2 49 -22 73 -24 25 -32 27 -80 22 -29 -3 -72 -15 -96 -28 -166 -84 -349
-266 -373 -371 -8 -34 18 -62 48 -54 61 18 79 19 74 5 -6 -19 -83 -43 -114
-35 -48 12 -54 87 -14 166 64 124 258 282 410 332 80 26 162 20 198 -15z m825
-408 c32 -17 32 -17 15 -36 -9 -10 -26 -63 -38 -118 -13 -55 -25 -106 -27
-112 -3 -8 4 -13 20 -13 13 0 30 -7 37 -15 10 -13 7 -14 -24 -12 l-36 2 -31
-90 c-38 -111 -76 -179 -141 -250 -67 -73 -123 -106 -195 -112 -50 -4 -63 -1
-93 19 -47 32 -64 69 -56 123 15 95 115 192 281 271 50 23 107 46 127 49 52
10 64 23 76 85 l10 54 -21 -29 c-60 -85 -124 -118 -146 -76 -29 53 78 228 159
260 34 13 57 13 83 0z"/>
<path d="M1915 1401 c-38 -11 -67 -36 -106 -95 -41 -61 -54 -126 -25 -126 21
0 88 80 125 150 35 66 36 79 6 71z"/>
<path d="M1800 1106 c-154 -53 -298 -154 -341 -237 -23 -46 -25 -116 -4 -146
30 -43 109 -48 181 -10 50 26 131 123 168 200 33 70 73 203 65 212 -3 2 -34
-6 -69 -19z"/>
</g>
</svg>
