<svg xmlns="http://www.w3.org/2000/svg" width="64" height="65" viewBox="0 0 64 65"><g><g><g><path fill="#1b1b1b" d="M31.999 64.191c-13.008 0-23.995-9.563-25.835-22.353l-2.989 5.55c-.406.698-1.242 1.095-1.922.659l-.57-.214a1.544 1.544 0 0 1-.497-2.056l5.142-9.456c.007-.012.006-.026.013-.038l.368-.633c.204-.35.527-.577.886-.662.357-.088.75-.034 1.088.185l.616.396c.012.007.018.018.03.027l9.1 6.145c.68.436.902 1.355.497 2.055l-.41.451c-.406.699-1.33.727-2.01.29l-5.44-3.7c1.288 10.378 9.669 18.34 19.933 19.264V20H22a2 2 0 0 1 0-4h8.078c.016-.055.034-.11.055-.163A8.065 8.065 0 0 1 23.969 8a8.062 8.062 0 0 1 8.063-8.063A8.062 8.062 0 0 1 40.094 8c0 3.82-2.656 7.02-6.223 7.852.018.048.035.097.049.148H42a2 2 0 1 1 0 4h-8.001V60.1c10.266-.923 18.654-8.89 19.94-19.267l-5.446 3.703c-.68.437-1.604.409-2.01-.29l-.409-.451a1.544 1.544 0 0 1 .497-2.055l9.1-6.145c.012-.01.018-.02.03-.027l.616-.396c.338-.219.731-.273 1.087-.185.36.085.683.312.887.662l.368.633c.007.012.005.026.013.038l5.142 9.456a1.544 1.544 0 0 1-.497 2.056l-.57.214c-.68.436-1.516.04-1.922-.66l-2.985-5.543C55.996 54.63 45 64.191 31.999 64.191zm.033-60.254A4.067 4.067 0 0 0 27.969 8a4.067 4.067 0 0 0 4.063 4.062A4.067 4.067 0 0 0 36.094 8a4.067 4.067 0 0 0-4.062-4.063s2.24 0 0 0z"/></g></g></g></svg>