<svg xmlns="http://www.w3.org/2000/svg" viewBox="0 0 155 156" width="155" height="156">
	<style>
		tspan { white-space:pre }
		.shp0 { fill: #ffffff } 
	</style>
	<g id="Sec 1">
		<path id="-e-1" fill-rule="evenodd" class="shp0" d="M144.44 47.81C149.72 47.81 154 52.09 154 57.37L154 143.44C154 148.72 149.72 153 144.44 153L29.69 153C24.41 153 20.12 148.72 20.12 143.44L20.12 138.66L134.87 138.66L134.87 62.16L110.97 62.16L110.97 47.81L144.44 47.81ZM10.56 0L96.62 0C101.91 0 106.19 4.28 106.19 9.56L106.19 124.31C106.19 129.59 101.91 133.87 96.62 133.87L10.56 133.87C5.28 133.87 1 129.59 1 124.31L1 9.56C1 4.28 5.28 0 10.56 0ZM15.34 114.75L91.84 114.75L91.84 14.34L15.34 14.34L15.34 114.75ZM48.81 124.31C48.81 126.95 50.95 129.09 53.59 129.09C56.23 129.09 58.37 126.95 58.37 124.31C58.37 121.67 56.23 119.53 53.59 119.53C50.95 119.53 48.81 121.67 48.81 124.31ZM139.66 100.41C139.66 103.05 141.8 105.19 144.44 105.19C147.08 105.19 149.22 103.05 149.22 100.41C149.22 97.76 147.08 95.62 144.44 95.62C141.8 95.62 139.66 97.76 139.66 100.41Z" />
	</g>
</svg>
