<?xml version="1.0" encoding="UTF-8"?>
<svg xmlns="http://www.w3.org/2000/svg" xmlns:xlink="http://www.w3.org/1999/xlink" width="80pt" height="80pt" viewBox="0 0 80 80" version="1.1">
<g id="surface1">
<rect x="0" y="0" width="80" height="80" style="fill:rgb(86.666667%,29.411765%,22.352941%);fill-opacity:1;stroke:none;"/>
<path style=" stroke:none;fill-rule:nonzero;fill:rgb(100%,100%,100%);fill-opacity:1;" d="M 53.613281 48.832031 L 55.816406 48.832031 C 56.40625 48.832031 56.882812 48.355469 56.882812 47.761719 L 56.882812 40.019531 L 64.609375 40.019531 C 65.199219 40.019531 65.679688 39.535156 65.679688 38.945312 L 65.679688 36.742188 C 65.679688 36.148438 65.199219 35.667969 64.609375 35.667969 L 56.882812 35.667969 L 56.882812 27.925781 C 56.882812 27.335938 56.40625 26.855469 55.816406 26.855469 L 53.613281 26.855469 C 53.019531 26.855469 52.542969 27.335938 52.542969 27.925781 L 52.542969 35.667969 L 44.8125 35.667969 C 44.226562 35.667969 43.746094 36.148438 43.746094 36.742188 L 43.746094 38.945312 C 43.746094 39.535156 44.226562 40.019531 44.8125 40.019531 L 52.542969 40.019531 L 52.542969 47.761719 C 52.542969 48.355469 53.023438 48.832031 53.613281 48.832031 Z M 53.613281 48.832031 "/>
<path style=" stroke:none;fill-rule:nonzero;fill:rgb(100%,100%,100%);fill-opacity:1;" d="M 23.167969 62.320312 C 25.121094 62.820312 27.226562 63.074219 29.40625 63.074219 C 31.367188 63.074219 33.238281 62.8125 34.96875 62.3125 C 40.355469 60.75 43.839844 56.773438 43.839844 52.183594 C 43.839844 47.78125 42.429688 45.144531 38.636719 42.457031 C 37.011719 41.304688 35.53125 39.617188 35.507812 39.09375 C 35.507812 38.144531 35.589844 37.695312 37.710938 36.039062 C 40.449219 33.894531 41.957031 31.066406 41.957031 28.082031 C 41.957031 25.378906 41.132812 22.972656 39.722656 21.285156 L 40.816406 21.285156 C 41.042969 21.285156 41.261719 21.214844 41.441406 21.085938 L 44.484375 18.878906 C 44.859375 18.605469 45.019531 18.125 44.875 17.679688 C 44.730469 17.238281 44.324219 16.9375 43.859375 16.9375 L 30.261719 16.9375 C 28.773438 16.9375 27.261719 17.199219 25.78125 17.710938 C 20.824219 19.421875 17.359375 23.652344 17.359375 28 C 17.359375 34.148438 22.113281 38.8125 28.476562 38.957031 C 28.351562 39.445312 28.289062 39.925781 28.289062 40.398438 C 28.289062 41.34375 28.53125 42.242188 29.023438 43.109375 C 28.964844 43.113281 28.910156 43.113281 28.847656 43.113281 C 22.785156 43.113281 17.3125 46.09375 15.238281 50.527344 C 14.695312 51.679688 14.421875 52.847656 14.421875 53.996094 C 14.421875 55.117188 14.707031 56.195312 15.269531 57.207031 C 16.578125 59.546875 19.378906 61.363281 23.167969 62.320312 Z M 24.378906 27.832031 C 24.085938 25.578125 24.554688 23.554688 25.675781 22.273438 C 26.402344 21.445312 27.347656 21.007812 28.410156 21.007812 L 28.535156 21.011719 C 31.539062 21.101562 34.410156 24.453125 34.941406 28.488281 C 35.238281 30.75 34.738281 32.871094 33.605469 34.171875 C 32.878906 35 31.945312 35.433594 30.835938 35.433594 C 30.835938 35.433594 30.835938 35.433594 30.832031 35.433594 L 30.789062 35.433594 C 27.84375 35.347656 24.90625 31.859375 24.378906 27.832031 Z M 30.15625 46.523438 L 30.277344 46.527344 C 31.285156 46.535156 32.265625 46.6875 33.195312 46.96875 C 33.511719 47.1875 33.820312 47.398438 34.117188 47.597656 C 36.257812 49.0625 37.675781 50.03125 38.070312 51.582031 C 38.160156 51.96875 38.207031 52.359375 38.207031 52.738281 C 38.207031 56.726562 35.238281 58.75 29.378906 58.75 C 24.9375 58.75 21.464844 56.019531 21.464844 52.535156 C 21.464844 49.332031 25.527344 46.523438 30.15625 46.523438 Z M 30.15625 46.523438 "/>
<path style=" stroke:none;fill-rule:nonzero;fill:rgb(100%,100%,100%);fill-opacity:1;" d="M 53.613281 48.832031 L 55.816406 48.832031 C 56.40625 48.832031 56.882812 48.355469 56.882812 47.761719 L 56.882812 40.019531 L 64.609375 40.019531 C 65.199219 40.019531 65.679688 39.535156 65.679688 38.945312 L 65.679688 36.742188 C 65.679688 36.148438 65.199219 35.667969 64.609375 35.667969 L 56.882812 35.667969 L 56.882812 27.925781 C 56.882812 27.335938 56.40625 26.855469 55.816406 26.855469 L 53.613281 26.855469 C 53.019531 26.855469 52.542969 27.335938 52.542969 27.925781 L 52.542969 35.667969 L 44.8125 35.667969 C 44.226562 35.667969 43.746094 36.148438 43.746094 36.742188 L 43.746094 38.945312 C 43.746094 39.535156 44.226562 40.019531 44.8125 40.019531 L 52.542969 40.019531 L 52.542969 47.761719 C 52.542969 48.355469 53.023438 48.832031 53.613281 48.832031 Z M 53.613281 48.832031 "/>
<path style=" stroke:none;fill-rule:nonzero;fill:rgb(100%,100%,100%);fill-opacity:1;" d="M 23.167969 62.320312 C 25.121094 62.820312 27.226562 63.074219 29.40625 63.074219 C 31.367188 63.074219 33.238281 62.8125 34.96875 62.3125 C 40.355469 60.75 43.839844 56.773438 43.839844 52.183594 C 43.839844 47.78125 42.429688 45.144531 38.636719 42.457031 C 37.011719 41.304688 35.53125 39.617188 35.507812 39.09375 C 35.507812 38.144531 35.589844 37.695312 37.710938 36.039062 C 40.449219 33.894531 41.957031 31.066406 41.957031 28.082031 C 41.957031 25.378906 41.132812 22.972656 39.722656 21.285156 L 40.816406 21.285156 C 41.042969 21.285156 41.261719 21.214844 41.441406 21.085938 L 44.484375 18.878906 C 44.859375 18.605469 45.019531 18.125 44.875 17.679688 C 44.730469 17.238281 44.324219 16.9375 43.859375 16.9375 L 30.261719 16.9375 C 28.773438 16.9375 27.261719 17.199219 25.78125 17.710938 C 20.824219 19.421875 17.359375 23.652344 17.359375 28 C 17.359375 34.148438 22.113281 38.8125 28.476562 38.957031 C 28.351562 39.445312 28.289062 39.925781 28.289062 40.398438 C 28.289062 41.34375 28.53125 42.242188 29.023438 43.109375 C 28.964844 43.113281 28.910156 43.113281 28.847656 43.113281 C 22.785156 43.113281 17.3125 46.09375 15.238281 50.527344 C 14.695312 51.679688 14.421875 52.847656 14.421875 53.996094 C 14.421875 55.117188 14.707031 56.195312 15.269531 57.207031 C 16.578125 59.546875 19.378906 61.363281 23.167969 62.320312 Z M 24.378906 27.832031 C 24.085938 25.578125 24.554688 23.554688 25.675781 22.273438 C 26.402344 21.445312 27.347656 21.007812 28.410156 21.007812 L 28.535156 21.011719 C 31.539062 21.101562 34.410156 24.453125 34.941406 28.488281 C 35.238281 30.75 34.738281 32.871094 33.605469 34.171875 C 32.878906 35 31.945312 35.433594 30.835938 35.433594 C 30.835938 35.433594 30.835938 35.433594 30.832031 35.433594 L 30.789062 35.433594 C 27.84375 35.347656 24.90625 31.859375 24.378906 27.832031 Z M 30.15625 46.523438 L 30.277344 46.527344 C 31.285156 46.535156 32.265625 46.6875 33.195312 46.96875 C 33.511719 47.1875 33.820312 47.398438 34.117188 47.597656 C 36.257812 49.0625 37.675781 50.03125 38.070312 51.582031 C 38.160156 51.96875 38.207031 52.359375 38.207031 52.738281 C 38.207031 56.726562 35.238281 58.75 29.378906 58.75 C 24.9375 58.75 21.464844 56.019531 21.464844 52.535156 C 21.464844 49.332031 25.527344 46.523438 30.15625 46.523438 Z M 30.15625 46.523438 "/>
<path style=" stroke:none;fill-rule:nonzero;fill:rgb(100%,100%,100%);fill-opacity:1;" d="M 53.613281 48.832031 L 55.816406 48.832031 C 56.40625 48.832031 56.882812 48.355469 56.882812 47.761719 L 56.882812 40.019531 L 64.609375 40.019531 C 65.199219 40.019531 65.679688 39.535156 65.679688 38.945312 L 65.679688 36.742188 C 65.679688 36.148438 65.199219 35.667969 64.609375 35.667969 L 56.882812 35.667969 L 56.882812 27.925781 C 56.882812 27.335938 56.40625 26.855469 55.816406 26.855469 L 53.613281 26.855469 C 53.019531 26.855469 52.542969 27.335938 52.542969 27.925781 L 52.542969 35.667969 L 44.8125 35.667969 C 44.226562 35.667969 43.746094 36.148438 43.746094 36.742188 L 43.746094 38.945312 C 43.746094 39.535156 44.226562 40.019531 44.8125 40.019531 L 52.542969 40.019531 L 52.542969 47.761719 C 52.542969 48.355469 53.023438 48.832031 53.613281 48.832031 Z M 53.613281 48.832031 "/>
<path style=" stroke:none;fill-rule:nonzero;fill:rgb(100%,100%,100%);fill-opacity:1;" d="M 23.167969 62.320312 C 25.121094 62.820312 27.226562 63.074219 29.40625 63.074219 C 31.367188 63.074219 33.238281 62.8125 34.96875 62.3125 C 40.355469 60.75 43.839844 56.773438 43.839844 52.183594 C 43.839844 47.78125 42.429688 45.144531 38.636719 42.457031 C 37.011719 41.304688 35.53125 39.617188 35.507812 39.09375 C 35.507812 38.144531 35.589844 37.695312 37.710938 36.039062 C 40.449219 33.894531 41.957031 31.066406 41.957031 28.082031 C 41.957031 25.378906 41.132812 22.972656 39.722656 21.285156 L 40.816406 21.285156 C 41.042969 21.285156 41.261719 21.214844 41.441406 21.085938 L 44.484375 18.878906 C 44.859375 18.605469 45.019531 18.125 44.875 17.679688 C 44.730469 17.238281 44.324219 16.9375 43.859375 16.9375 L 30.261719 16.9375 C 28.773438 16.9375 27.261719 17.199219 25.78125 17.710938 C 20.824219 19.421875 17.359375 23.652344 17.359375 28 C 17.359375 34.148438 22.113281 38.8125 28.476562 38.957031 C 28.351562 39.445312 28.289062 39.925781 28.289062 40.398438 C 28.289062 41.34375 28.53125 42.242188 29.023438 43.109375 C 28.964844 43.113281 28.910156 43.113281 28.847656 43.113281 C 22.785156 43.113281 17.3125 46.09375 15.238281 50.527344 C 14.695312 51.679688 14.421875 52.847656 14.421875 53.996094 C 14.421875 55.117188 14.707031 56.195312 15.269531 57.207031 C 16.578125 59.546875 19.378906 61.363281 23.167969 62.320312 Z M 24.378906 27.832031 C 24.085938 25.578125 24.554688 23.554688 25.675781 22.273438 C 26.402344 21.445312 27.347656 21.007812 28.410156 21.007812 L 28.535156 21.011719 C 31.539062 21.101562 34.410156 24.453125 34.941406 28.488281 C 35.238281 30.75 34.738281 32.871094 33.605469 34.171875 C 32.878906 35 31.945312 35.433594 30.835938 35.433594 C 30.835938 35.433594 30.835938 35.433594 30.832031 35.433594 L 30.789062 35.433594 C 27.84375 35.347656 24.90625 31.859375 24.378906 27.832031 Z M 30.15625 46.523438 L 30.277344 46.527344 C 31.285156 46.535156 32.265625 46.6875 33.195312 46.96875 C 33.511719 47.1875 33.820312 47.398438 34.117188 47.597656 C 36.257812 49.0625 37.675781 50.03125 38.070312 51.582031 C 38.160156 51.96875 38.207031 52.359375 38.207031 52.738281 C 38.207031 56.726562 35.238281 58.75 29.378906 58.75 C 24.9375 58.75 21.464844 56.019531 21.464844 52.535156 C 21.464844 49.332031 25.527344 46.523438 30.15625 46.523438 Z M 30.15625 46.523438 "/>
<path style=" stroke:none;fill-rule:nonzero;fill:rgb(18.039216%,21.568627%,23.529412%);fill-opacity:1;" d="M 53.613281 48.832031 L 55.816406 48.832031 C 56.40625 48.832031 56.882812 48.355469 56.882812 47.761719 L 56.882812 40.019531 L 64.609375 40.019531 C 65.199219 40.019531 65.679688 39.535156 65.679688 38.945312 L 65.679688 36.742188 C 65.679688 36.148438 65.199219 35.667969 64.609375 35.667969 L 56.882812 35.667969 L 56.882812 27.925781 C 56.882812 27.335938 56.40625 26.855469 55.816406 26.855469 L 53.613281 26.855469 C 53.019531 26.855469 52.542969 27.335938 52.542969 27.925781 L 52.542969 35.667969 L 44.8125 35.667969 C 44.226562 35.667969 43.746094 36.148438 43.746094 36.742188 L 43.746094 38.945312 C 43.746094 39.535156 44.226562 40.019531 44.8125 40.019531 L 52.542969 40.019531 L 52.542969 47.761719 C 52.542969 48.355469 53.023438 48.832031 53.613281 48.832031 Z M 53.613281 48.832031 "/>
<path style=" stroke:none;fill-rule:nonzero;fill:rgb(18.039216%,21.568627%,23.529412%);fill-opacity:1;" d="M 23.167969 62.320312 C 25.121094 62.820312 27.226562 63.074219 29.40625 63.074219 C 31.367188 63.074219 33.238281 62.8125 34.96875 62.3125 C 40.355469 60.75 43.839844 56.773438 43.839844 52.183594 C 43.839844 47.78125 42.429688 45.144531 38.636719 42.457031 C 37.011719 41.304688 35.53125 39.617188 35.507812 39.09375 C 35.507812 38.144531 35.589844 37.695312 37.710938 36.039062 C 40.449219 33.894531 41.957031 31.066406 41.957031 28.082031 C 41.957031 25.378906 41.132812 22.972656 39.722656 21.285156 L 40.816406 21.285156 C 41.042969 21.285156 41.261719 21.214844 41.441406 21.085938 L 44.484375 18.878906 C 44.859375 18.605469 45.019531 18.125 44.875 17.679688 C 44.730469 17.238281 44.324219 16.9375 43.859375 16.9375 L 30.261719 16.9375 C 28.773438 16.9375 27.261719 17.199219 25.78125 17.710938 C 20.824219 19.421875 17.359375 23.652344 17.359375 28 C 17.359375 34.148438 22.113281 38.8125 28.476562 38.957031 C 28.351562 39.445312 28.289062 39.925781 28.289062 40.398438 C 28.289062 41.34375 28.53125 42.242188 29.023438 43.109375 C 28.964844 43.113281 28.910156 43.113281 28.847656 43.113281 C 22.785156 43.113281 17.3125 46.09375 15.238281 50.527344 C 14.695312 51.679688 14.421875 52.847656 14.421875 53.996094 C 14.421875 55.117188 14.707031 56.195312 15.269531 57.207031 C 16.578125 59.546875 19.378906 61.363281 23.167969 62.320312 Z M 24.378906 27.832031 C 24.085938 25.578125 24.554688 23.554688 25.675781 22.273438 C 26.402344 21.445312 27.347656 21.007812 28.410156 21.007812 L 28.535156 21.011719 C 31.539062 21.101562 34.410156 24.453125 34.941406 28.488281 C 35.238281 30.75 34.738281 32.871094 33.605469 34.171875 C 32.878906 35 31.945312 35.433594 30.835938 35.433594 C 30.835938 35.433594 30.835938 35.433594 30.832031 35.433594 L 30.789062 35.433594 C 27.84375 35.347656 24.90625 31.859375 24.378906 27.832031 Z M 30.15625 46.523438 L 30.277344 46.527344 C 31.285156 46.535156 32.265625 46.6875 33.195312 46.96875 C 33.511719 47.1875 33.820312 47.398438 34.117188 47.597656 C 36.257812 49.0625 37.675781 50.03125 38.070312 51.582031 C 38.160156 51.96875 38.207031 52.359375 38.207031 52.738281 C 38.207031 56.726562 35.238281 58.75 29.378906 58.75 C 24.9375 58.75 21.464844 56.019531 21.464844 52.535156 C 21.464844 49.332031 25.527344 46.523438 30.15625 46.523438 Z M 30.15625 46.523438 "/>
<path style=" stroke:none;fill-rule:nonzero;fill:rgb(18.039216%,21.568627%,23.529412%);fill-opacity:1;" d="M 53.613281 48.832031 L 55.816406 48.832031 C 56.40625 48.832031 56.882812 48.355469 56.882812 47.761719 L 56.882812 40.019531 L 64.609375 40.019531 C 65.199219 40.019531 65.679688 39.535156 65.679688 38.945312 L 65.679688 36.742188 C 65.679688 36.148438 65.199219 35.667969 64.609375 35.667969 L 56.882812 35.667969 L 56.882812 27.925781 C 56.882812 27.335938 56.40625 26.855469 55.816406 26.855469 L 53.613281 26.855469 C 53.019531 26.855469 52.542969 27.335938 52.542969 27.925781 L 52.542969 35.667969 L 44.8125 35.667969 C 44.226562 35.667969 43.746094 36.148438 43.746094 36.742188 L 43.746094 38.945312 C 43.746094 39.535156 44.226562 40.019531 44.8125 40.019531 L 52.542969 40.019531 L 52.542969 47.761719 C 52.542969 48.355469 53.023438 48.832031 53.613281 48.832031 Z M 53.613281 48.832031 "/>
<path style=" stroke:none;fill-rule:nonzero;fill:rgb(18.039216%,21.568627%,23.529412%);fill-opacity:1;" d="M 23.167969 62.320312 C 25.121094 62.820312 27.226562 63.074219 29.40625 63.074219 C 31.367188 63.074219 33.238281 62.8125 34.96875 62.3125 C 40.355469 60.75 43.839844 56.773438 43.839844 52.183594 C 43.839844 47.78125 42.429688 45.144531 38.636719 42.457031 C 37.011719 41.304688 35.53125 39.617188 35.507812 39.09375 C 35.507812 38.144531 35.589844 37.695312 37.710938 36.039062 C 40.449219 33.894531 41.957031 31.066406 41.957031 28.082031 C 41.957031 25.378906 41.132812 22.972656 39.722656 21.285156 L 40.816406 21.285156 C 41.042969 21.285156 41.261719 21.214844 41.441406 21.085938 L 44.484375 18.878906 C 44.859375 18.605469 45.019531 18.125 44.875 17.679688 C 44.730469 17.238281 44.324219 16.9375 43.859375 16.9375 L 30.261719 16.9375 C 28.773438 16.9375 27.261719 17.199219 25.78125 17.710938 C 20.824219 19.421875 17.359375 23.652344 17.359375 28 C 17.359375 34.148438 22.113281 38.8125 28.476562 38.957031 C 28.351562 39.445312 28.289062 39.925781 28.289062 40.398438 C 28.289062 41.34375 28.53125 42.242188 29.023438 43.109375 C 28.964844 43.113281 28.910156 43.113281 28.847656 43.113281 C 22.785156 43.113281 17.3125 46.09375 15.238281 50.527344 C 14.695312 51.679688 14.421875 52.847656 14.421875 53.996094 C 14.421875 55.117188 14.707031 56.195312 15.269531 57.207031 C 16.578125 59.546875 19.378906 61.363281 23.167969 62.320312 Z M 24.378906 27.832031 C 24.085938 25.578125 24.554688 23.554688 25.675781 22.273438 C 26.402344 21.445312 27.347656 21.007812 28.410156 21.007812 L 28.535156 21.011719 C 31.539062 21.101562 34.410156 24.453125 34.941406 28.488281 C 35.238281 30.75 34.738281 32.871094 33.605469 34.171875 C 32.878906 35 31.945312 35.433594 30.835938 35.433594 C 30.835938 35.433594 30.835938 35.433594 30.832031 35.433594 L 30.789062 35.433594 C 27.84375 35.347656 24.90625 31.859375 24.378906 27.832031 Z M 30.15625 46.523438 L 30.277344 46.527344 C 31.285156 46.535156 32.265625 46.6875 33.195312 46.96875 C 33.511719 47.1875 33.820312 47.398438 34.117188 47.597656 C 36.257812 49.0625 37.675781 50.03125 38.070312 51.582031 C 38.160156 51.96875 38.207031 52.359375 38.207031 52.738281 C 38.207031 56.726562 35.238281 58.75 29.378906 58.75 C 24.9375 58.75 21.464844 56.019531 21.464844 52.535156 C 21.464844 49.332031 25.527344 46.523438 30.15625 46.523438 Z M 30.15625 46.523438 "/>
<path style=" stroke:none;fill-rule:nonzero;fill:rgb(18.039216%,21.568627%,23.529412%);fill-opacity:1;" d="M 53.613281 48.832031 L 55.816406 48.832031 C 56.40625 48.832031 56.882812 48.355469 56.882812 47.761719 L 56.882812 40.019531 L 64.609375 40.019531 C 65.199219 40.019531 65.679688 39.535156 65.679688 38.945312 L 65.679688 36.742188 C 65.679688 36.148438 65.199219 35.667969 64.609375 35.667969 L 56.882812 35.667969 L 56.882812 27.925781 C 56.882812 27.335938 56.40625 26.855469 55.816406 26.855469 L 53.613281 26.855469 C 53.019531 26.855469 52.542969 27.335938 52.542969 27.925781 L 52.542969 35.667969 L 44.8125 35.667969 C 44.226562 35.667969 43.746094 36.148438 43.746094 36.742188 L 43.746094 38.945312 C 43.746094 39.535156 44.226562 40.019531 44.8125 40.019531 L 52.542969 40.019531 L 52.542969 47.761719 C 52.542969 48.355469 53.023438 48.832031 53.613281 48.832031 Z M 53.613281 48.832031 "/>
<path style=" stroke:none;fill-rule:nonzero;fill:rgb(18.039216%,21.568627%,23.529412%);fill-opacity:1;" d="M 23.167969 62.320312 C 25.121094 62.820312 27.226562 63.074219 29.40625 63.074219 C 31.367188 63.074219 33.238281 62.8125 34.96875 62.3125 C 40.355469 60.75 43.839844 56.773438 43.839844 52.183594 C 43.839844 47.78125 42.429688 45.144531 38.636719 42.457031 C 37.011719 41.304688 35.53125 39.617188 35.507812 39.09375 C 35.507812 38.144531 35.589844 37.695312 37.710938 36.039062 C 40.449219 33.894531 41.957031 31.066406 41.957031 28.082031 C 41.957031 25.378906 41.132812 22.972656 39.722656 21.285156 L 40.816406 21.285156 C 41.042969 21.285156 41.261719 21.214844 41.441406 21.085938 L 44.484375 18.878906 C 44.859375 18.605469 45.019531 18.125 44.875 17.679688 C 44.730469 17.238281 44.324219 16.9375 43.859375 16.9375 L 30.261719 16.9375 C 28.773438 16.9375 27.261719 17.199219 25.78125 17.710938 C 20.824219 19.421875 17.359375 23.652344 17.359375 28 C 17.359375 34.148438 22.113281 38.8125 28.476562 38.957031 C 28.351562 39.445312 28.289062 39.925781 28.289062 40.398438 C 28.289062 41.34375 28.53125 42.242188 29.023438 43.109375 C 28.964844 43.113281 28.910156 43.113281 28.847656 43.113281 C 22.785156 43.113281 17.3125 46.09375 15.238281 50.527344 C 14.695312 51.679688 14.421875 52.847656 14.421875 53.996094 C 14.421875 55.117188 14.707031 56.195312 15.269531 57.207031 C 16.578125 59.546875 19.378906 61.363281 23.167969 62.320312 Z M 24.378906 27.832031 C 24.085938 25.578125 24.554688 23.554688 25.675781 22.273438 C 26.402344 21.445312 27.347656 21.007812 28.410156 21.007812 L 28.535156 21.011719 C 31.539062 21.101562 34.410156 24.453125 34.941406 28.488281 C 35.238281 30.75 34.738281 32.871094 33.605469 34.171875 C 32.878906 35 31.945312 35.433594 30.835938 35.433594 C 30.835938 35.433594 30.835938 35.433594 30.832031 35.433594 L 30.789062 35.433594 C 27.84375 35.347656 24.90625 31.859375 24.378906 27.832031 Z M 30.15625 46.523438 L 30.277344 46.527344 C 31.285156 46.535156 32.265625 46.6875 33.195312 46.96875 C 33.511719 47.1875 33.820312 47.398438 34.117188 47.597656 C 36.257812 49.0625 37.675781 50.03125 38.070312 51.582031 C 38.160156 51.96875 38.207031 52.359375 38.207031 52.738281 C 38.207031 56.726562 35.238281 58.75 29.378906 58.75 C 24.9375 58.75 21.464844 56.019531 21.464844 52.535156 C 21.464844 49.332031 25.527344 46.523438 30.15625 46.523438 Z M 30.15625 46.523438 "/>
<path style=" stroke:none;fill-rule:nonzero;fill:rgb(100%,100%,100%);fill-opacity:1;" d="M 52.453125 48.832031 L 54.65625 48.832031 C 55.246094 48.832031 55.722656 48.355469 55.722656 47.761719 L 55.722656 40.019531 L 63.449219 40.019531 C 64.039062 40.019531 64.519531 39.535156 64.519531 38.945312 L 64.519531 36.742188 C 64.519531 36.148438 64.039062 35.667969 63.449219 35.667969 L 55.722656 35.667969 L 55.722656 27.925781 C 55.722656 27.335938 55.246094 26.855469 54.65625 26.855469 L 52.453125 26.855469 C 51.859375 26.855469 51.378906 27.335938 51.378906 27.925781 L 51.378906 35.667969 L 43.652344 35.667969 C 43.066406 35.667969 42.585938 36.148438 42.585938 36.742188 L 42.585938 38.945312 C 42.585938 39.535156 43.066406 40.019531 43.652344 40.019531 L 51.378906 40.019531 L 51.378906 47.761719 C 51.382812 48.355469 51.863281 48.832031 52.453125 48.832031 Z M 52.453125 48.832031 "/>
<path style=" stroke:none;fill-rule:nonzero;fill:rgb(100%,100%,100%);fill-opacity:1;" d="M 22.007812 62.320312 C 23.960938 62.820312 26.066406 63.074219 28.246094 63.074219 C 30.207031 63.074219 32.078125 62.8125 33.808594 62.3125 C 39.195312 60.75 42.679688 56.773438 42.679688 52.183594 C 42.679688 47.78125 41.269531 45.144531 37.476562 42.457031 C 35.851562 41.304688 34.371094 39.617188 34.347656 39.09375 C 34.347656 38.144531 34.429688 37.695312 36.550781 36.039062 C 39.289062 33.894531 40.796875 31.066406 40.796875 28.082031 C 40.796875 25.378906 39.972656 22.972656 38.5625 21.285156 L 39.65625 21.285156 C 39.882812 21.285156 40.101562 21.214844 40.28125 21.085938 L 43.324219 18.878906 C 43.699219 18.605469 43.859375 18.125 43.714844 17.679688 C 43.570312 17.238281 43.160156 16.9375 42.699219 16.9375 L 29.101562 16.9375 C 27.613281 16.9375 26.101562 17.199219 24.621094 17.710938 C 19.664062 19.421875 16.199219 23.652344 16.199219 28 C 16.199219 34.148438 20.953125 38.8125 27.316406 38.957031 C 27.191406 39.445312 27.128906 39.925781 27.128906 40.398438 C 27.128906 41.34375 27.371094 42.242188 27.863281 43.109375 C 27.804688 43.113281 27.75 43.113281 27.6875 43.113281 C 21.625 43.113281 16.152344 46.09375 14.078125 50.527344 C 13.535156 51.679688 13.261719 52.847656 13.261719 53.996094 C 13.261719 55.117188 13.546875 56.195312 14.105469 57.207031 C 15.417969 59.546875 18.21875 61.363281 22.007812 62.320312 Z M 23.21875 27.832031 C 22.925781 25.578125 23.394531 23.554688 24.515625 22.273438 C 25.242188 21.445312 26.1875 21.007812 27.25 21.007812 L 27.375 21.011719 C 30.378906 21.101562 33.25 24.453125 33.78125 28.488281 C 34.078125 30.75 33.578125 32.871094 32.441406 34.171875 C 31.71875 35 30.785156 35.433594 29.675781 35.433594 C 29.675781 35.433594 29.675781 35.433594 29.671875 35.433594 L 29.628906 35.433594 C 26.683594 35.347656 23.746094 31.859375 23.21875 27.832031 Z M 28.996094 46.523438 L 29.117188 46.527344 C 30.125 46.535156 31.105469 46.6875 32.035156 46.96875 C 32.351562 47.1875 32.660156 47.398438 32.957031 47.597656 C 35.097656 49.0625 36.511719 50.03125 36.910156 51.582031 C 37 51.96875 37.046875 52.359375 37.046875 52.738281 C 37.046875 56.726562 34.078125 58.75 28.21875 58.75 C 23.777344 58.75 20.304688 56.019531 20.304688 52.535156 C 20.304688 49.332031 24.367188 46.523438 28.996094 46.523438 Z M 28.996094 46.523438 "/>
<path style=" stroke:none;fill-rule:nonzero;fill:rgb(100%,100%,100%);fill-opacity:1;" d="M 52.453125 48.832031 L 54.65625 48.832031 C 55.246094 48.832031 55.722656 48.355469 55.722656 47.761719 L 55.722656 40.019531 L 63.449219 40.019531 C 64.039062 40.019531 64.519531 39.535156 64.519531 38.945312 L 64.519531 36.742188 C 64.519531 36.148438 64.039062 35.667969 63.449219 35.667969 L 55.722656 35.667969 L 55.722656 27.925781 C 55.722656 27.335938 55.246094 26.855469 54.65625 26.855469 L 52.453125 26.855469 C 51.859375 26.855469 51.378906 27.335938 51.378906 27.925781 L 51.378906 35.667969 L 43.652344 35.667969 C 43.066406 35.667969 42.585938 36.148438 42.585938 36.742188 L 42.585938 38.945312 C 42.585938 39.535156 43.066406 40.019531 43.652344 40.019531 L 51.378906 40.019531 L 51.378906 47.761719 C 51.382812 48.355469 51.863281 48.832031 52.453125 48.832031 Z M 52.453125 48.832031 "/>
<path style=" stroke:none;fill-rule:nonzero;fill:rgb(100%,100%,100%);fill-opacity:1;" d="M 22.007812 62.320312 C 23.960938 62.820312 26.066406 63.074219 28.246094 63.074219 C 30.207031 63.074219 32.078125 62.8125 33.808594 62.3125 C 39.195312 60.75 42.679688 56.773438 42.679688 52.183594 C 42.679688 47.78125 41.269531 45.144531 37.476562 42.457031 C 35.851562 41.304688 34.371094 39.617188 34.347656 39.09375 C 34.347656 38.144531 34.429688 37.695312 36.550781 36.039062 C 39.289062 33.894531 40.796875 31.066406 40.796875 28.082031 C 40.796875 25.378906 39.972656 22.972656 38.5625 21.285156 L 39.65625 21.285156 C 39.882812 21.285156 40.101562 21.214844 40.28125 21.085938 L 43.324219 18.878906 C 43.699219 18.605469 43.859375 18.125 43.714844 17.679688 C 43.570312 17.238281 43.160156 16.9375 42.699219 16.9375 L 29.101562 16.9375 C 27.613281 16.9375 26.101562 17.199219 24.621094 17.710938 C 19.664062 19.421875 16.199219 23.652344 16.199219 28 C 16.199219 34.148438 20.953125 38.8125 27.316406 38.957031 C 27.191406 39.445312 27.128906 39.925781 27.128906 40.398438 C 27.128906 41.34375 27.371094 42.242188 27.863281 43.109375 C 27.804688 43.113281 27.75 43.113281 27.6875 43.113281 C 21.625 43.113281 16.152344 46.09375 14.078125 50.527344 C 13.535156 51.679688 13.261719 52.847656 13.261719 53.996094 C 13.261719 55.117188 13.546875 56.195312 14.105469 57.207031 C 15.417969 59.546875 18.21875 61.363281 22.007812 62.320312 Z M 23.21875 27.832031 C 22.925781 25.578125 23.394531 23.554688 24.515625 22.273438 C 25.242188 21.445312 26.1875 21.007812 27.25 21.007812 L 27.375 21.011719 C 30.378906 21.101562 33.25 24.453125 33.78125 28.488281 C 34.078125 30.75 33.578125 32.871094 32.441406 34.171875 C 31.71875 35 30.785156 35.433594 29.675781 35.433594 C 29.675781 35.433594 29.675781 35.433594 29.671875 35.433594 L 29.628906 35.433594 C 26.683594 35.347656 23.746094 31.859375 23.21875 27.832031 Z M 28.996094 46.523438 L 29.117188 46.527344 C 30.125 46.535156 31.105469 46.6875 32.035156 46.96875 C 32.351562 47.1875 32.660156 47.398438 32.957031 47.597656 C 35.097656 49.0625 36.511719 50.03125 36.910156 51.582031 C 37 51.96875 37.046875 52.359375 37.046875 52.738281 C 37.046875 56.726562 34.078125 58.75 28.21875 58.75 C 23.777344 58.75 20.304688 56.019531 20.304688 52.535156 C 20.304688 49.332031 24.367188 46.523438 28.996094 46.523438 Z M 28.996094 46.523438 "/>
<path style=" stroke:none;fill-rule:nonzero;fill:rgb(100%,100%,100%);fill-opacity:1;" d="M 52.453125 48.832031 L 54.65625 48.832031 C 55.246094 48.832031 55.722656 48.355469 55.722656 47.761719 L 55.722656 40.019531 L 63.449219 40.019531 C 64.039062 40.019531 64.519531 39.535156 64.519531 38.945312 L 64.519531 36.742188 C 64.519531 36.148438 64.039062 35.667969 63.449219 35.667969 L 55.722656 35.667969 L 55.722656 27.925781 C 55.722656 27.335938 55.246094 26.855469 54.65625 26.855469 L 52.453125 26.855469 C 51.859375 26.855469 51.378906 27.335938 51.378906 27.925781 L 51.378906 35.667969 L 43.652344 35.667969 C 43.066406 35.667969 42.585938 36.148438 42.585938 36.742188 L 42.585938 38.945312 C 42.585938 39.535156 43.066406 40.019531 43.652344 40.019531 L 51.378906 40.019531 L 51.378906 47.761719 C 51.382812 48.355469 51.863281 48.832031 52.453125 48.832031 Z M 52.453125 48.832031 "/>
<path style=" stroke:none;fill-rule:nonzero;fill:rgb(100%,100%,100%);fill-opacity:1;" d="M 22.007812 62.320312 C 23.960938 62.820312 26.066406 63.074219 28.246094 63.074219 C 30.207031 63.074219 32.078125 62.8125 33.808594 62.3125 C 39.195312 60.75 42.679688 56.773438 42.679688 52.183594 C 42.679688 47.78125 41.269531 45.144531 37.476562 42.457031 C 35.851562 41.304688 34.371094 39.617188 34.347656 39.09375 C 34.347656 38.144531 34.429688 37.695312 36.550781 36.039062 C 39.289062 33.894531 40.796875 31.066406 40.796875 28.082031 C 40.796875 25.378906 39.972656 22.972656 38.5625 21.285156 L 39.65625 21.285156 C 39.882812 21.285156 40.101562 21.214844 40.28125 21.085938 L 43.324219 18.878906 C 43.699219 18.605469 43.859375 18.125 43.714844 17.679688 C 43.570312 17.238281 43.160156 16.9375 42.699219 16.9375 L 29.101562 16.9375 C 27.613281 16.9375 26.101562 17.199219 24.621094 17.710938 C 19.664062 19.421875 16.199219 23.652344 16.199219 28 C 16.199219 34.148438 20.953125 38.8125 27.316406 38.957031 C 27.191406 39.445312 27.128906 39.925781 27.128906 40.398438 C 27.128906 41.34375 27.371094 42.242188 27.863281 43.109375 C 27.804688 43.113281 27.75 43.113281 27.6875 43.113281 C 21.625 43.113281 16.152344 46.09375 14.078125 50.527344 C 13.535156 51.679688 13.261719 52.847656 13.261719 53.996094 C 13.261719 55.117188 13.546875 56.195312 14.105469 57.207031 C 15.417969 59.546875 18.21875 61.363281 22.007812 62.320312 Z M 23.21875 27.832031 C 22.925781 25.578125 23.394531 23.554688 24.515625 22.273438 C 25.242188 21.445312 26.1875 21.007812 27.25 21.007812 L 27.375 21.011719 C 30.378906 21.101562 33.25 24.453125 33.78125 28.488281 C 34.078125 30.75 33.578125 32.871094 32.441406 34.171875 C 31.71875 35 30.785156 35.433594 29.675781 35.433594 C 29.675781 35.433594 29.675781 35.433594 29.671875 35.433594 L 29.628906 35.433594 C 26.683594 35.347656 23.746094 31.859375 23.21875 27.832031 Z M 28.996094 46.523438 L 29.117188 46.527344 C 30.125 46.535156 31.105469 46.6875 32.035156 46.96875 C 32.351562 47.1875 32.660156 47.398438 32.957031 47.597656 C 35.097656 49.0625 36.511719 50.03125 36.910156 51.582031 C 37 51.96875 37.046875 52.359375 37.046875 52.738281 C 37.046875 56.726562 34.078125 58.75 28.21875 58.75 C 23.777344 58.75 20.304688 56.019531 20.304688 52.535156 C 20.304688 49.332031 24.367188 46.523438 28.996094 46.523438 Z M 28.996094 46.523438 "/>
</g>
</svg>
