<?xml version="1.0" encoding="UTF-8"?>
<svg xmlns="http://www.w3.org/2000/svg" xmlns:xlink="http://www.w3.org/1999/xlink" width="80pt" height="80pt" viewBox="0 0 80 80" version="1.1">
<g id="surface1">
<rect x="0" y="0" width="80" height="80" style="fill:rgb(86.666667%,29.411765%,22.352941%);fill-opacity:1;stroke:none;"/>
<path style=" stroke:none;fill-rule:nonzero;fill:rgb(18.039216%,21.568627%,23.529412%);fill-opacity:1;" d="M 32.847656 67.089844 L 43.679688 67.089844 C 43.679688 67.089844 43.679688 52.136719 43.679688 40.003906 L 51.722656 40.003906 L 52.710938 29.171875 L 44.101562 29.171875 L 44.101562 24.839844 C 44.101562 22.726562 45.507812 22.238281 46.496094 22.238281 C 47.480469 22.238281 52.574219 22.238281 52.574219 22.238281 L 52.574219 12.953125 L 44.203125 12.917969 C 34.914062 12.917969 32.800781 19.84375 32.800781 24.273438 L 32.800781 29.171875 L 27.429688 29.171875 L 27.429688 40.003906 L 32.847656 40.003906 C 32.847656 52.28125 32.847656 67.089844 32.847656 67.089844 Z M 32.847656 67.089844 "/>
<path style=" stroke:none;fill-rule:nonzero;fill:rgb(100%,100%,100%);fill-opacity:1;" d="M 31.609375 67.089844 L 42.445312 67.089844 C 42.445312 67.089844 42.445312 52.136719 42.445312 40.003906 L 50.484375 40.003906 L 51.472656 29.171875 L 42.863281 29.171875 L 42.863281 24.839844 C 42.863281 22.726562 44.269531 22.238281 45.257812 22.238281 C 46.246094 22.238281 51.335938 22.238281 51.335938 22.238281 L 51.335938 12.953125 L 42.964844 12.917969 C 33.675781 12.917969 31.5625 19.84375 31.5625 24.273438 L 31.5625 29.171875 L 26.191406 29.171875 L 26.191406 40.003906 L 31.609375 40.003906 C 31.609375 52.28125 31.609375 67.089844 31.609375 67.089844 Z M 31.609375 67.089844 "/>
</g>
</svg>
