<?xml version="1.0" encoding="UTF-8"?>
<svg xmlns="http://www.w3.org/2000/svg" xmlns:xlink="http://www.w3.org/1999/xlink" width="80pt" height="80pt" viewBox="0 0 80 80" version="1.1">
<g id="surface1">
<rect x="0" y="0" width="80" height="80" style="fill:rgb(86.666667%,29.411765%,22.352941%);fill-opacity:1;stroke:none;"/>
<path style=" stroke:none;fill-rule:nonzero;fill:rgb(18.039216%,21.568627%,23.529412%);fill-opacity:1;" d="M 67.035156 28.542969 C 67.035156 28.542969 66.503906 24.589844 64.855469 22.847656 C 62.761719 20.566406 60.417969 20.550781 59.347656 20.421875 C 51.652344 19.84375 40.113281 19.84375 40.113281 19.84375 L 40.085938 19.84375 C 40.085938 19.84375 28.542969 19.84375 20.847656 20.425781 C 19.773438 20.550781 17.433594 20.566406 15.339844 22.847656 C 13.691406 24.589844 13.15625 28.542969 13.15625 28.542969 C 13.15625 28.542969 12.605469 33.179688 12.605469 37.820312 L 12.605469 42.167969 C 12.605469 46.808594 13.15625 51.449219 13.15625 51.449219 C 13.15625 51.449219 13.691406 55.402344 15.339844 57.140625 C 17.433594 59.425781 20.183594 59.347656 21.402344 59.589844 C 25.800781 60.027344 40.097656 60.167969 40.097656 60.167969 C 40.097656 60.167969 51.652344 60.144531 59.347656 59.566406 C 60.417969 59.433594 62.761719 59.425781 64.855469 57.136719 C 66.503906 55.402344 67.035156 51.449219 67.035156 51.449219 C 67.035156 51.449219 67.589844 46.808594 67.589844 42.167969 L 67.589844 37.820312 C 67.589844 33.179688 67.035156 28.542969 67.035156 28.542969 Z M 34.421875 47.441406 L 34.417969 31.332031 L 49.273438 39.417969 Z M 34.421875 47.441406 "/>
<path style=" stroke:none;fill-rule:nonzero;fill:rgb(100%,100%,100%);fill-opacity:1;" d="M 65.527344 28.542969 C 65.527344 28.542969 64.988281 24.589844 63.34375 22.847656 C 61.253906 20.566406 58.910156 20.550781 57.839844 20.421875 C 50.136719 19.84375 38.597656 19.84375 38.597656 19.84375 L 38.574219 19.84375 C 38.574219 19.84375 27.027344 19.84375 19.335938 20.425781 C 18.261719 20.550781 15.921875 20.566406 13.824219 22.847656 C 12.183594 24.589844 11.644531 28.542969 11.644531 28.542969 C 11.644531 28.542969 11.089844 33.179688 11.089844 37.820312 L 11.089844 42.167969 C 11.089844 46.808594 11.644531 51.449219 11.644531 51.449219 C 11.644531 51.449219 12.183594 55.402344 13.824219 57.140625 C 15.921875 59.425781 18.671875 59.347656 19.894531 59.589844 C 24.292969 60.027344 38.585938 60.167969 38.585938 60.167969 C 38.585938 60.167969 50.136719 60.144531 57.839844 59.566406 C 58.910156 59.433594 61.253906 59.425781 63.34375 57.136719 C 64.988281 55.402344 65.527344 51.449219 65.527344 51.449219 C 65.527344 51.449219 66.078125 46.808594 66.078125 42.167969 L 66.078125 37.820312 C 66.078125 33.179688 65.527344 28.542969 65.527344 28.542969 Z M 32.910156 47.441406 L 32.90625 31.332031 L 47.761719 39.417969 Z M 32.910156 47.441406 "/>
</g>
</svg>
