<svg xmlns="http://www.w3.org/2000/svg" width="65" height="64" viewBox="0 0 65 64"><g><g><path fill="#fff" d="M15.774 3.98l4.011 12.088L28.2 3.98zm33.224 0H36.126l8.88 11.432zm10.068 13.996L52.64 5.689l-4.291 12.287zm-53.941 0h11.077L11.946 5.15zm53.4 4H46.952l-10.49 30.035zm-36.78 0l10.217 30.785 10.751-30.785zm-15.767 0l21.497 29.967-9.945-29.967zM52.167-.02c1.1 0 2.417.797 2.927 1.771l8.743 16.715c.51.975.394 2.496-.256 3.383L33.087 63.365c-.325.441-.749.662-1.172.662-.428 0-.856-.227-1.178-.676L.735 21.53c-.64-.895-.744-2.42-.227-3.39l8.72-16.393C9.744.775 11.066-.02 12.166-.02h19.685c.043-.004.086-.007.129-.008.05 0 .102.003.153.008zM32.122 5.345l-8.793 12.63h18.602z"/></g></g></svg>