<svg xmlns="http://www.w3.org/2000/svg" width="64" height="48" viewBox="0 0 64 48"><g><g><path fill="#1b1b1b" d="M-.086 32.55c.06-.866 3.113-19.833 3.623-22.89.049-.292.088-.605.13-.933C4.062 5.655 4.796-.062 14.01-.062a1.999 1.999 0 1 1 0 4c-5.696 0-5.996 2.338-6.375 5.299-.05.379-.096.742-.153 1.08-.238 1.437-1.335 7.185-2.262 12.808a14.226 14.226 0 0 1 8.864-3.107c5.122 0 9.6 2.76 12.029 6.873 1.222-.494 3.201-1.058 5.865-1.058 2.706 0 4.744.56 5.948 1.013 2.497-4.089 7.052-6.828 12.156-6.828 3.172 0 6.097 1.058 8.441 2.841-.914-5.548-1.971-11.136-2.205-12.542a29.64 29.64 0 0 1-.152-1.08c-.379-2.961-.68-5.299-6.375-5.299a2 2 0 1 1 0-4c9.215 0 9.95 5.717 10.342 8.79.043.327.082.64.13.933.51 3.056 3.762 22.148 3.823 23.014.016.225-.006.445-.06.652.01.215.015.432.015.65 0 7.71-6.25 13.96-13.96 13.96-7.708 0-14.167-6.251-14.167-13.96a13.6 13.6 0 0 1 .441-3.442c-.867-.305-2.38-.702-4.377-.702-2.045 0-3.523.435-4.347.763a13.99 13.99 0 0 1 .412 3.381c0 7.71-6.25 13.96-13.96 13.96-7.708 0-14.167-6.25-14.167-13.96 0-.302.01-.602.03-.9a1.999 1.999 0 0 1-.032-.528zm59.984.41a40.726 40.726 0 0 0-.105-1.197c-1.01-4.43-4.98-7.745-9.711-7.745 0 0 5.512 0 0 0s-10.168 4.56-10.168 9.96c0 5.398 4.656 9.958 10.168 9.958 5.492 0 9.959-4.467 9.959-9.959 0-.16-.004-.319-.011-.477a1.682 1.682 0 0 1-.132-.54zm-45.814-8.942c-5.512 0-10.168 4.56-10.168 9.96 0 5.398 4.656 9.958 10.168 9.958 5.492 0 9.959-4.467 9.959-9.959s-4.467-9.959-9.96-9.959c0 0 5.513 0 0 0z"/></g></g></svg>